<?xml version="1.0" encoding="iso-8859-1"?>
<!-- Generator: Adobe Illustrator 19.1.0, SVG Export Plug-In . SVG Version: 6.00 Build 0)  -->
<svg version="1.1" id="Capa_1" xmlns="http://www.w3.org/2000/svg" xmlns:xlink="http://www.w3.org/1999/xlink" x="0px" y="0px"
	 viewBox="0 0 333.656 333.656" style="enable-background:new 0 0 333.656 333.656;" xml:space="preserve">
<g>
	<g>
		<path d="M166.831,333.656c-78.221,0-141.853-63.626-141.853-141.84c0-10.161,1.086-20.309,3.22-30.168
			c2.571-11.832,14.788-19.795,26.742-17.217c5.887,1.279,10.906,4.762,14.158,9.814c3.252,5.051,4.345,11.073,3.072,16.941
			c-1.465,6.735-2.204,13.676-2.204,20.63c0,53.407,43.458,96.852,96.865,96.852s96.859-43.452,96.859-96.852
			c0-51.254-40.013-93.337-90.432-96.653l-0.006,31.935c0,11.697-8.091,17.822-16.08,17.822c-2.911,0-7.359-0.816-11.999-4.704
			L82.961,88.15c-4.756-3.985-7.487-9.711-7.487-15.701c0-6.003,2.731-11.723,7.487-15.701l62.212-52.051
			C149.819,0.816,154.26,0,157.171,0c7.989,0,16.08,6.118,16.08,17.822v32.282c75.252,3.368,135.426,65.65,135.426,141.712
			C308.678,270.023,245.046,333.656,166.831,333.656z M50.165,156.77c-4.569,0-8.438,3.123-9.409,7.597
			c-1.947,8.965-2.931,18.201-2.931,27.449c0,71.119,57.867,128.987,128.999,128.987c71.126,0,128.993-57.867,128.993-128.987
			c0-71.126-57.867-128.999-128.993-128.999h-6.427l0-45.001c0-3.111-1.208-4.968-3.226-4.968c-0.643,0-1.979,0.219-3.753,1.71
			L91.206,66.608c-1.832,1.53-2.879,3.657-2.879,5.842c0,2.185,1.048,4.312,2.879,5.848l62.212,52.057
			c1.774,1.485,3.111,1.716,3.753,1.716c2.018,0,3.226-1.857,3.226-4.968V82.103h6.427c60.502,0,109.719,49.223,109.719,109.719
			s-49.217,109.706-109.712,109.706c-60.502,0-109.719-49.21-109.719-109.706c0-7.873,0.842-15.726,2.494-23.355
			c0.546-2.519,0.084-5.096-1.311-7.262c-1.395-2.166-3.548-3.657-6.061-4.203C51.553,156.847,50.859,156.77,50.165,156.77z"/>
	</g>
</g>
<g>
</g>
<g>
</g>
<g>
</g>
<g>
</g>
<g>
</g>
<g>
</g>
<g>
</g>
<g>
</g>
<g>
</g>
<g>
</g>
<g>
</g>
<g>
</g>
<g>
</g>
<g>
</g>
<g>
</g>
</svg>
